<svg xmlns="http://www.w3.org/2000/svg" width="512" height="512" enable-background="new 0 0 512 512" viewBox="0 0 512 512"><polygon fill="#FFFBDB" points="225.729 101.613 225.729 325.625 457.813 457.878 457.813 232.792"/><polygon fill="#C73D2C" points="225.729 101.613 264.072 81.432 314.525 109.686 324.616 115.74 338.743 123.813 449.74 184.356 461.85 192.429 475.977 200.501 496.157 212.61 457.813 232.792"/><polygon fill="#1F5C9C" points="496.157 212.61 457.813 232.792 457.813 457.878 496.157 435.651"/><polygon fill="#FF5D42" points="225.729 154.084 457.813 284.511 457.813 232.792 225.729 101.613"/><polygon fill="#912621" points="457.813 284.511 496.157 264.506 496.157 212.61 457.813 232.792"/><polygon fill="#81BAD4" points="282.237 204.538 282.237 234.81 310.49 250.954 310.49 220.682"/><polygon fill="#81BAD4" points="322.6 226.737 322.6 257.01 350.853 273.155 350.853 242.882"/><polygon fill="#81BAD4" points="362.962 250.954 362.962 281.227 391.215 297.372 391.215 267.1"/><polygon fill="#81BAD4" points="401.306 275.172 401.306 305.443 429.559 321.589 429.559 291.317"/><polygon fill="#81BAD4" points="282.237 252.973 282.237 283.245 310.49 299.389 310.49 269.117"/><polygon fill="#81BAD4" points="241.875 228.755 241.875 259.026 270.128 275.172 270.128 244.9"/><polygon fill="#FF5D42" points="322.6 275.172 322.6 305.443 350.853 321.589 350.853 291.317"/><polygon fill="#81BAD4" points="362.962 299.389 362.962 329.661 391.215 345.807 391.215 315.534"/><polygon fill="#81BAD4" points="401.306 323.608 401.306 353.88 429.559 370.023 429.559 339.752"/><g><polygon fill="#81BAD4" points="282.237 301.408 282.237 331.68 310.49 347.825 310.49 317.554"/><polygon fill="#81BAD4" points="241.875 277.19 241.875 307.463 270.128 323.608 270.128 293.336"/><polygon fill="#81BAD4" points="322.6 323.608 322.6 353.88 350.853 370.023 350.853 339.752"/><polygon fill="#81BAD4" points="362.962 347.825 362.962 378.097 391.215 394.242 391.215 363.971"/></g><g><polygon fill="#1F5C9C" points="423.506 238.846 423.506 200.501 449.74 184.356 461.85 178.302 461.85 192.429 475.977 200.501 475.977 156.103 411.396 190.41 411.396 246.918"/><polygon fill="#639DEB" points="411.396 246.918 397.27 238.846 397.27 182.339 411.396 190.41"/><polygon fill="#82D3FF" points="397.27 182.339 459.831 148.03 475.977 156.103 411.396 190.41"/><polygon fill="#639DEB" points="449.74 184.356 461.85 192.429 461.85 178.302"/></g><g><polygon fill="#1F5C9C" points="288.29 162.157 288.29 123.813 314.525 109.686 324.616 103.631 324.616 115.74 338.743 123.813 338.743 79.414 274.163 113.722 274.163 170.229"/><polygon fill="#639DEB" points="274.163 170.229 260.037 162.157 260.037 105.649 274.163 113.722"/><polygon fill="#82D3FF" points="260.037 105.649 322.6 71.342 338.743 79.414 274.163 113.722"/><polygon fill="#639DEB" points="314.525 109.686 324.616 115.74 324.616 103.631"/></g><g><polygon fill="#0EC478" points="336.727 353.88 113.024 229.274 15.843 287.281 235.82 410.386"/><polygon fill="#107054" points="336.727 353.88 336.727 450.061 235.82 509.275 235.82 410.386"/><polygon fill="#089970" points="235.82 509.275 15.843 384.152 15.843 287.281 235.82 410.386"/><path fill="#FFFBDB" d="M287.382,351.221c0-3.322,2.527-6.318,6.568-8.454l-162.406-90.226c-3.878,2.161-9.266,3.504-15.23,3.504
				c-5.788,0-11.027-1.267-14.878-3.317l-41.393,24.067c4.248,2.146,6.924,5.214,6.924,8.631c0,3.229-2.375,6.151-6.214,8.273
				l159.447,89.345c3.922-2.499,9.714-4.087,16.191-4.087c6.418,0,12.162,1.561,16.082,4.02l41.229-23.425
				C289.801,357.426,287.382,354.479,287.382,351.221z"/><ellipse cx="176.353" cy="318.098" fill="#0EC478" rx="41.945" ry="23.028"/><polygon fill="#0EC478" points="15.843 305.443 235.82 428.55 235.82 444.695 15.843 321.589"/><polygon fill="#0EC478" points="15.843 337.734 235.82 458.822 235.82 474.968 15.843 353.88"/><polygon fill="#0EC478" points="15.843 370.023 235.82 493.13 235.82 509.275 15.843 384.152"/><polygon fill="#089970" points="235.82 428.55 336.727 372.042 336.727 388.188 235.82 444.695"/><polygon fill="#089970" points="235.82 458.822 336.727 402.36 336.727 418.46 235.82 474.968"/><polygon fill="#089970" points="235.82 493.13 336.727 434.605 336.727 450.061 235.82 509.275"/></g><g><polygon fill="#FFD900" points="201.512 30.979 116.749 174.266 46.115 129.867 62.26 101.613 84.46 117.758 104.642 129.867 175.276 12.816"/><polygon fill="#1F5C9C" points="155.095 2.725 84.46 117.758 104.642 129.867 175.276 12.816"/><polygon fill="#1F5C9C" points="62.26 101.613 38.043 89.504 21.897 117.758 46.115 129.867"/><polygon fill="#1F5C9C" points="21.897 117.758 88.496 160.139 116.749 174.266 46.115 129.867"/></g></svg>