<svg xmlns="http://www.w3.org/2000/svg" width="64" height="64" enable-background="new 0 0 64 64" viewBox="0 0 64 64"><path fill="#78BFE8" d="M31.23 3.587v17.168c3.917-.062 7.855-1.085 11.7-3.039C40.439 9.737 36.16 4.248 31.23 3.587zM17.576 17.416c3.917 1.954 7.804 3.059 11.587 3.287V3.587C24.305 4.248 20.067 9.602 17.576 17.416z"/><path fill="#368CCB" d="M43.499 19.731c-4.01 1.995-8.134 3.028-12.269 3.09v9.933h13.984C45.142 28.062 44.532 23.649 43.499 19.731zM15.189 32.755h13.974V22.77c-3.979-.207-8.072-1.333-12.176-3.339C15.902 23.421 15.271 27.948 15.189 32.755z"/><path fill="#78BFE8" d="M31.23,47.773V64c4.785-0.641,8.951-5.829,11.473-13.426C38.868,48.848,35.044,47.917,31.23,47.773z"/><path fill="#368CCB" d="M45.215,34.822H31.23v10.956c4.021,0.134,8.052,1.075,12.062,2.832
		C44.45,44.507,45.132,39.814,45.215,34.822z"/><path fill="#78BFE8" d="M29.163,64V47.773c-3.824,0.145-7.638,1.075-11.473,2.791C20.212,58.16,24.388,63.349,29.163,64z"/><path fill="#368CCB" d="M17.111 48.61c4.01-1.757 8.031-2.698 12.052-2.832V34.822H15.189C15.271 39.814 15.954 44.507 17.111 48.61zM15.096 18.439c-2.357-1.302-4.765-2.925-7.152-4.817-4.558 5.127-7.411 11.814-7.649 19.132h12.827C13.204 27.556 13.907 22.698 15.096 18.439z"/><path fill="#78BFE8" d="M22.878,4.445c-5.168,1.323-9.809,4.021-13.509,7.68c2.129,1.674,4.258,3.111,6.346,4.289
		C17.421,11.215,19.912,7.049,22.878,4.445z"/><path fill="#368CCB" d="M13.121,34.822H0.284c0.238,7.132,2.925,13.871,7.638,19.194c2.419-1.799,4.848-3.307,7.277-4.517
		C13.948,45.147,13.204,40.166,13.121,34.822z"/><path fill="#78BFE8" d="M15.819 51.473c-2.15 1.106-4.3 2.45-6.46 4.062 3.835 3.773 8.486 6.377 13.571 7.638C19.995 60.631 17.535 56.558 15.819 51.473zM37.514 63.142c5.158-1.323 9.778-4.01 13.478-7.649-2.139-1.592-4.279-2.925-6.408-4.021C42.879 56.538 40.429 60.589 37.514 63.142z"/><path fill="#368CCB" d="M45.204,49.509c2.418,1.189,4.827,2.687,7.225,4.486c4.569-5.127,7.432-11.835,7.669-19.173H47.282
		C47.199,40.176,46.455,45.158,45.204,49.509z"/><path fill="#EF6183" d="M49.793,14.729c0,0,0,0,0.01,0c0,0.01,0.01,0.01,0.01,0.021c1.902,3.494,4.434,7.121,5.726,8.899
		c0.527-0.734,1.282-1.799,2.129-3.028c0-0.01,0.01-0.031,0.021-0.041c0.021-0.031,0.052-0.072,0.072-0.103
		c3.845-5.747,5.953-10.119,5.953-12.31C63.716,3.659,60.047,0,55.54,0c-4.155,0-7.649,3.101-8.124,7.204v0.052
		c-0.041,0.289-0.052,0.599-0.052,0.91c0,0.941,0.403,2.822,2.357,6.439C49.752,14.646,49.773,14.687,49.793,14.729z M55.54,2.874
		c2.77,0,5.034,2.263,5.034,5.034c0,2.78-2.264,5.044-5.034,5.044c-2.78,0-5.044-2.264-5.044-5.044
		C50.496,5.137,52.76,2.874,55.54,2.874z"/><path fill="#78BFE8" d="M44.791,16.703c0.91-0.527,1.83-1.127,2.76-1.788c-0.692-1.333-1.209-2.512-1.592-3.556
		c-0.444-1.261-0.661-2.315-0.661-3.194c0-0.176,0-0.352,0.021-0.517c-2.45-1.457-5.096-2.553-7.845-3.235
		C40.522,7.06,43.054,11.339,44.791,16.703z"/><path fill="#368CCB" d="M56.357,26.016c-0.186,0.259-0.496,0.413-0.816,0.413c-0.331,0-0.631-0.155-0.827-0.413
		c-0.155-0.196-3.504-4.62-6.16-9.282c-1.065,0.754-2.119,1.426-3.163,2.005c1.137,4.186,1.809,8.93,1.891,14.016h12.816
		c-0.093-3.235-0.692-6.398-1.809-9.416C57.183,24.93,56.408,25.964,56.357,26.016z"/></svg>