<svg xmlns="http://www.w3.org/2000/svg" width="36" height="36"><g fill="#fff" transform="translate(2 -1017.362)"><circle cx="16" cy="1035.362" r="18" fill="#1d67b1"/><path style="line-height:normal;text-indent:0;text-align:start;text-decoration-line:none;text-decoration-style:solid;text-decoration-color:#000;text-transform:none;block-progression:tb;isolation:auto;mix-blend-mode:normal" fill="#154082" d="M19.797 35.893a18 18 0 0 0 1.262-.155 18 18 0 0 0 1.755-.394 18 18 0 0 0 1.707-.567 18 18 0 0 0 1.643-.736 18 18 0 0 0 1.56-.895A18 18 0 0 0 29.19 32.1a18 18 0 0 0 1.352-1.188 18 18 0 0 0 1.227-1.316 18 18 0 0 0 1.087-1.432 18 18 0 0 0 .942-1.535 18 18 0 0 0 .781-1.62 18 18 0 0 0 .617-1.689 18 18 0 0 0 .446-1.744 18 18 0 0 0 .056-.38l-8.1-8.1a.5.5 0 0 0-.495-.498l-9.1-.012v.002l-9.008.021a.5.5 0 0 0-.002 0 .5.5 0 0 0-.097-.01.5.5 0 0 0-.493.508V24.498a.5.5 0 0 0 .498.498h.002v.002l10.895 10.895z" color="#000" font-family="sans-serif" font-weight="400" transform="translate(-2 1017.362)"/><path d="m16.6 11-9.008.021a.5.5 0 0 0-.002 0 .5.5 0 0 0-.098-.007.5.5 0 0 0-.492.507v11.39a.5.5 0 0 0 .5.5h18.191a.5.5 0 0 0 .5-.5V11.585a.5.5 0 0 0-.492-.574L16.6 11Zm0 1h.002l7.359.01-7.361 4.605-7.36-4.595L16.6 12Zm8.591.418v9.992H8v-9.988l8.336 5.207a.5.5 0 0 0 .53 0l8.325-5.211z" color="#000" font-family="sans-serif" font-weight="400" overflow="visible" transform="translate(-.598 1018.952)" style="line-height:normal;text-indent:0;text-align:start;text-decoration-line:none;text-decoration-style:solid;text-decoration-color:#000;text-transform:none;block-progression:tb;isolation:auto;mix-blend-mode:normal"/></g></svg>