<svg xmlns="http://www.w3.org/2000/svg" data-name="Layer 1" viewBox="0 0 32 32"><path fill="#0478ed" d="M16 6a2.5 2.5 0 1 1 2.5-2.5A2.5 2.5 0 0 1 16 6Zm0-3a.5.5 0 1 0 .5.5.5.5 0 0 0-.5-.5Z"/><circle cx="16" cy="27.5" r="2.5" fill="#56aaff"/><path fill="#0478ed" d="M16 31a3.5 3.5 0 1 1 3.5-3.5A3.5 3.5 0 0 1 16 31Zm0-5a1.5 1.5 0 1 0 1.5 1.5A1.5 1.5 0 0 0 16 26Z"/><path fill="#c6e3ff" d="M25 20.76V14a9 9 0 0 0-9-9 9 9 0 0 0-9 9v6.76a2 2 0 0 1-1.11 1.79A1.62 1.62 0 0 0 5 24a1 1 0 0 0 1 1h20a1 1 0 0 0 1-1 1.62 1.62 0 0 0-.89-1.45A2 2 0 0 1 25 20.76Z"/><path fill="#0478ed" d="M26 26H6a2 2 0 0 1-2-2 2.61 2.61 0 0 1 1.45-2.34 1 1 0 0 0 .55-.9V14a10 10 0 0 1 20 0v6.76a1 1 0 0 0 .55.89A2.61 2.61 0 0 1 28 24a2 2 0 0 1-2 2ZM16 6a8 8 0 0 0-8 8v6.76a3 3 0 0 1-1.66 2.68A.61.61 0 0 0 6 24h20a.61.61 0 0 0-.34-.55A3 3 0 0 1 24 20.76V14a8 8 0 0 0-8-8Z"/></svg>