<svg xmlns="http://www.w3.org/2000/svg" width="64" height="64"><g color="#000" font-family="sans-serif" font-weight="400"><path fill="#ff143a" d="M-1178.5 2697.986c-3.026 0-5.5 2.475-5.5 5.5 0 2.684 1.948 4.929 4.5 5.403v3.097h-1.5a1 1 0 1 0 0 2h1.5v2a1 1 0 1 0 2 0v-2h1.5a1 1 0 1 0 0-2h-1.5v-3.097c2.552-.474 4.5-2.719 4.5-5.403 0-3.025-2.474-5.5-5.5-5.5zm0 2c1.945 0 3.5 1.555 3.5 3.5s-1.555 3.5-3.5 3.5a3.485 3.485 0 0 1-3.5-3.5c0-1.945 1.555-3.5 3.5-3.5z" overflow="visible" transform="rotate(60 3474.104 4738.524) scale(1.98198)" style="line-height:normal;text-indent:0;text-align:start;text-decoration-line:none;text-decoration-style:solid;text-decoration-color:#000;text-transform:none;block-progression:tb;white-space:normal;isolation:auto;mix-blend-mode:normal;solid-color:#000;solid-opacity:1"/><path fill="#1267d6" d="M-1165.516 2697.934a1 1 0 0 0-.777.39 1 1 0 0 0 0 .01l-2.738 2.739a1 1 0 1 0 1.414 1.414l1.12-1.122v4.682c-2.55.474-4.5 2.72-4.5 5.404 0 3.026 2.475 5.5 5.5 5.5 3.027 0 5.5-2.474 5.5-5.5 0-2.684-1.947-4.93-4.5-5.404v-4.682l1.122 1.122a1 1 0 1 0 1.414-1.414l-2.738-2.739a1 1 0 0 0-.813-.396zm.016 10.013c1.945 0 3.5 1.555 3.5 3.5s-1.555 3.5-3.5 3.5a3.485 3.485 0 0 1-3.5-3.5c0-1.945 1.556-3.5 3.5-3.5z" overflow="visible" transform="rotate(60 3474.104 4738.524) scale(1.98198)" style="line-height:normal;text-indent:0;text-align:start;text-decoration-line:none;text-decoration-style:solid;text-decoration-color:#000;text-transform:none;block-progression:tb;white-space:normal;isolation:auto;mix-blend-mode:normal;solid-color:#000;solid-opacity:1"/><path fill="#d30045" d="M-1178.5 2697.986c-.169 0-.335.01-.5.025 2.793.255 5 2.618 5 5.475 0 2.684-1.948 4.928-4.5 5.402v3.098h1v-3.098c2.552-.474 4.5-2.718 4.5-5.402 0-3.026-2.474-5.5-5.5-5.5zm-1 2a3.485 3.485 0 0 0-3.5 3.5c0 1.945 1.555 3.5 3.5 3.5.171 0 .335-.025.5-.049a3.473 3.473 0 0 1-3-3.45 3.473 3.473 0 0 1 3-3.452c-.165-.023-.329-.049-.5-.049zm2.5 12a1 1 0 1 1 0 2h1a1 1 0 1 0 0-2h-1zm-1.5 2v2a1 1 0 0 1-.5.88 1 1 0 0 0 1.5-.88v-2h-1z" overflow="visible" transform="rotate(60 3474.104 4738.524) scale(1.98198)" style="line-height:normal;text-indent:0;text-align:start;text-decoration-line:none;text-decoration-style:solid;text-decoration-color:#000;text-transform:none;block-progression:tb;white-space:normal;isolation:auto;mix-blend-mode:normal;solid-color:#000;solid-opacity:1"/><path fill="#0a3d9d" d="M-1165.516 2697.934a.966.966 0 0 0-.484.134c.117.067.22.158.3.266l2.74 2.738a1 1 0 0 1-.192 1.586c1.022.58 2.033-.774 1.187-1.59l-2.738-2.738a1 1 0 0 0-.813-.396zm-.984 2.427-2.117 2.125c-.065.067-.14.126-.22.172.409.247.86.194 1.216-.176l1.121-1.129zm1.004.02v5.665c2.552.474 4.5 2.72 4.5 5.405 0 2.836-2.175 5.19-4.94 5.472.145.012.29.023.436.023 3.026 0 5.5-2.474 5.5-5.5 0-2.684-1.948-4.93-4.5-5.404v-4.666zm-1.004 7.566a3.485 3.485 0 0 0-3.5 3.5c0 1.945 1.555 3.5 3.5 3.5.171 0 .335-.025.5-.05a3.473 3.473 0 0 1-3-3.45 3.473 3.473 0 0 1 3-3.452c-.165-.023-.329-.049-.5-.049z" overflow="visible" transform="rotate(60 3474.104 4738.524) scale(1.98198)" style="line-height:normal;text-indent:0;text-align:start;text-decoration-line:none;text-decoration-style:solid;text-decoration-color:#000;text-transform:none;block-progression:tb;white-space:normal;isolation:auto;mix-blend-mode:normal;solid-color:#000;solid-opacity:1"/></g></svg>