<svg xmlns="http://www.w3.org/2000/svg" width="48" height="48"><g transform="translate(0 -1004.362)"><circle cx="24" cy="1028.362" r="24" fill="#ef4c45" fill-rule="evenodd"/><path fill="#df2209" style="line-height:normal;-inkscape-font-specification:Sans;text-indent:0;text-align:start;text-decoration-line:none;text-transform:none;block-progression:tb;marker:none" d="M20.752 47.752a24 24 0 0 0 1.55.187A24 24 0 0 0 24 48a24 24 0 0 0 2.396-.12 24 24 0 0 0 2.372-.359 24 24 0 0 0 2.324-.593 24 24 0 0 0 2.254-.823 24 24 0 0 0 2.16-1.042 24 24 0 0 0 2.045-1.254 24 24 0 0 0 1.91-1.454 24 24 0 0 0 1.756-1.634 24 24 0 0 0 1.584-1.803 24 24 0 0 0 1.394-1.951 24 24 0 0 0 1.194-2.08 24 24 0 0 0 .98-2.19 24 24 0 0 0 .756-2.277 24 24 0 0 0 .525-2.34 24 24 0 0 0 .121-1.004l-9.923-9.924A.5.5 0 0 0 37.5 17h-9.053l-6.35-6.35c-.047-.047-.104-.083-.156-.127-.051-.043-.1-.088-.156-.127a2.382 2.382 0 0 0-.271-.16c-.056-.029-.11-.06-.168-.086a2.533 2.533 0 0 0-.36-.115c-.049-.013-.094-.033-.144-.043a2.81 2.81 0 0 0-.56-.055h-.47v.002l-.03.467c-.011.158-.089.26-.25.375-.155.11-.385.2-.595.219H16.72C15.216 11 14 12.238 14 13.75V16.594a.504.504 0 0 0 0 .281V18.5a4.527 4.527 0 0 0 .268 1.531c.172.48.421.92.732 1.313v2.375l-4.906 2.812C8.813 27.263 8 28.62 8 30.094V35l12.752 12.752z" color="#000" font-family="Sans" font-weight="400" transform="translate(0 1004.362)"/><path fill="#fff" style="line-height:normal;-inkscape-font-specification:Sans;text-indent:0;text-align:start;text-decoration-line:none;text-transform:none;block-progression:tb;marker:none" d="m-186.113 1078.77-.031.468c-.01.158-.089.261-.25.375-.155.11-.384.2-.594.219H-189.207c-1.503 0-2.719 1.238-2.719 2.75V1085.426a.504.504 0 0 0 0 .28v1.626c0 1.077.38 2.06 1 2.843v2.376l-4.906 2.812c-1.28.732-2.094 2.087-2.094 3.563v4.906h29.25c1.48 0 2.75-1.092 2.75-2.5a.52.52 0 0 0-.5-.5h-1.5v-14.5a.52.52 0 0 0-.5-.5h-14.5a.5.5 0 0 0 0-.031v-4.218c-.099-.76-.33-1.444-.78-1.969-.452-.525-1.13-.848-1.938-.844zm.656 1.062c.424.043.768.168 1 .438.261.304.443.78.531 1.375v3.093a2.419 2.419 0 0 0-.625-.219c-.595-.11-1.202-.088-1.781-.062-.579.024-1.124.027-1.563-.094-.438-.12-.771-.308-1.062-.812a.515.515 0 0 0-.563-.25.512.512 0 0 0-.375.375c.019-.068-.051.089-.187.25-.136.16-.303.355-.5.53-.114.102-.227.169-.344.25v-2.124c0-.982.76-1.75 1.719-1.75H-186.958a2.307 2.307 0 0 0 1.157-.406c.181-.128.222-.389.344-.594zm-3.781 4.656c.346.33.652.73 1.062.844.634.175 1.28.15 1.875.125.595-.025 1.15-.045 1.563.031.381.07.61.22.812.531v1.313c0 1.979-1.555 3.562-3.5 3.562-1.944 0-3.5-1.583-3.5-3.562v-1.438c.087-.05.194-.1.281-.156.236-.15.49-.327.72-.531a6.47 6.47 0 0 0 .624-.625c.026-.031.038-.065.063-.094zm6.312 2.344h14v13.969l-1.875.03h-6.125v-2c0-1.415-.74-2.734-1.969-3.437l-5.03-2.843v-2.407c.603-.777 1-1.75 1-2.812zm-2 4.281v2c-.398.739-.78 1.505-1.656 2.25l-.031.031-.781.72-.75-.72-.063-.062c-.717-.773-1.4-1.693-1.719-2.562v-1.625c.712.479 1.582.75 2.5.75.933 0 1.782-.288 2.5-.781zm-6.375 2.782-.594 2.25-.03.03v.032c-.095.778.75 1.434 1.468 1.093v-.03l1.875-.907.656.625v5.844h-5v-3h-1v3h-3v-3.906a3.16 3.16 0 0 1 1.594-2.72zm1.031.094c.315.553.622 1.085 1.032 1.562l-1.657.844h-.03v-.031c-.003-.011-.005 0 0-.031zm6.875 0 4 2.28a2.937 2.937 0 0 1 1.47 2.563v4h-2.97v-3h-1v3h-5v-5.812l.72-.656 1.968.937c.728.33 1.6-.3 1.5-1.094l-.031-.062v-.03s-.277-.813-.531-1.657c-.05-.167-.083-.304-.125-.469zm-.968.156c.057.199.094.386.156.594.243.807.441 1.508.469 1.593-.003.024-.007.066-.031.062h-.032l-1.687-.812c.466-.51.878-.979 1.125-1.438zm-1.063 4.687a.5.5 0 1 0 0 1 .5.5 0 0 0 0-1zm0 2a.5.5 0 1 0 0 1 .5.5 0 0 0 0-1zm8.5 1h9.75c-.25.542-.743 1-1.5 1h-8.25z" color="#000" font-family="Sans" font-weight="400" overflow="visible" transform="translate(205.926 -64.47)"/></g></svg>